<svg width="32" height="32" viewBox="0 0 32 32" fill="none" xmlns="http://www.w3.org/2000/svg">
<path fill-rule="evenodd" clip-rule="evenodd" d="M11.0527 4.072C12.3324 4.01309 12.7404 4 16 4C19.2596 4 19.6676 4.01418 20.9462 4.072C22.2247 4.12982 23.0975 4.33382 23.8611 4.62945C24.6607 4.93164 25.3862 5.404 25.9862 6.01491C26.5971 6.61382 27.0684 7.33818 27.3695 8.13891C27.6662 8.90255 27.8691 9.77527 27.928 11.0516C27.9869 12.3335 28 12.7415 28 16C28 19.2596 27.9858 19.6676 27.928 20.9473C27.8702 22.2236 27.6662 23.0964 27.3695 23.86C27.0684 24.6608 26.5963 25.3864 25.9862 25.9862C25.3862 26.5971 24.6607 27.0684 23.8611 27.3695C23.0975 27.6662 22.2247 27.8691 20.9484 27.928C19.6676 27.9869 19.2596 28 16 28C12.7404 28 12.3324 27.9858 11.0527 27.928C9.77636 27.8702 8.90364 27.6662 8.14 27.3695C7.33919 27.0683 6.61362 26.5963 6.01382 25.9862C5.40332 25.3869 4.93089 24.6617 4.62945 23.8611C4.33382 23.0975 4.13091 22.2247 4.072 20.9484C4.01309 19.6665 4 19.2585 4 16C4 12.7404 4.01418 12.3324 4.072 11.0538C4.12982 9.77527 4.33382 8.90255 4.62945 8.13891C4.93133 7.33827 5.40413 6.61307 6.01491 6.01382C6.61386 5.40346 7.3387 4.93103 8.13891 4.62945C8.90255 4.33382 9.77527 4.13091 11.0516 4.072H11.0527ZM20.8491 6.232C19.5836 6.17418 19.204 6.16218 16 6.16218C12.796 6.16218 12.4164 6.17418 11.1509 6.232C9.98036 6.28545 9.34545 6.48073 8.92218 6.64545C8.36255 6.86364 7.96218 7.12218 7.54218 7.54218C7.14405 7.92951 6.83765 8.40104 6.64545 8.92218C6.48073 9.34545 6.28545 9.98036 6.232 11.1509C6.17418 12.4164 6.16218 12.796 6.16218 16C6.16218 19.204 6.17418 19.5836 6.232 20.8491C6.28545 22.0196 6.48073 22.6545 6.64545 23.0778C6.83745 23.5982 7.144 24.0705 7.54218 24.4578C7.92945 24.856 8.40182 25.1625 8.92218 25.3545C9.34545 25.5193 9.98036 25.7145 11.1509 25.768C12.4164 25.8258 12.7949 25.8378 16 25.8378C19.2051 25.8378 19.5836 25.8258 20.8491 25.768C22.0196 25.7145 22.6545 25.5193 23.0778 25.3545C23.6375 25.1364 24.0378 24.8778 24.4578 24.4578C24.856 24.0705 25.1625 23.5982 25.3545 23.0778C25.5193 22.6545 25.7145 22.0196 25.768 20.8491C25.8258 19.5836 25.8378 19.204 25.8378 16C25.8378 12.796 25.8258 12.4164 25.768 11.1509C25.7145 9.98036 25.5193 9.34545 25.3545 8.92218C25.1364 8.36255 24.8778 7.96218 24.4578 7.54218C24.0705 7.14408 23.5989 6.83768 23.0778 6.64545C22.6545 6.48073 22.0196 6.28545 20.8491 6.232ZM14.4673 19.6993C15.3233 20.0556 16.2764 20.1037 17.1639 19.8353C18.0514 19.567 18.8182 18.9988 19.3334 18.2279C19.8485 17.457 20.0801 16.5311 19.9884 15.6085C19.8968 14.6858 19.4876 13.8236 18.8309 13.1691C18.4123 12.7507 17.906 12.4303 17.3487 12.2311C16.7914 12.0318 16.1968 11.9586 15.6078 12.0167C15.0188 12.0748 14.45 12.2627 13.9423 12.5671C13.4347 12.8714 13.0008 13.2844 12.672 13.7766C12.3431 14.2687 12.1275 14.8276 12.0406 15.413C11.9536 15.9985 11.9976 16.596 12.1693 17.1624C12.341 17.7288 12.6362 18.2501 13.0335 18.6888C13.4309 19.1275 13.9205 19.4726 14.4673 19.6993ZM11.6385 11.6385C12.2113 11.0658 12.8913 10.6115 13.6396 10.3015C14.3879 9.99151 15.19 9.83197 16 9.83197C16.81 9.83197 17.6121 9.99151 18.3604 10.3015C19.1087 10.6115 19.7887 11.0658 20.3615 11.6385C20.9342 12.2113 21.3885 12.8913 21.6985 13.6396C22.0085 14.3879 22.168 15.19 22.168 16C22.168 16.81 22.0085 17.6121 21.6985 18.3604C21.3885 19.1087 20.9342 19.7887 20.3615 20.3615C19.2047 21.5182 17.6359 22.168 16 22.168C14.3641 22.168 12.7953 21.5182 11.6385 20.3615C10.4818 19.2047 9.83197 17.6359 9.83197 16C9.83197 14.3641 10.4818 12.7953 11.6385 11.6385ZM23.536 10.7505C23.6779 10.6167 23.7916 10.4557 23.8701 10.2771C23.9487 10.0985 23.9907 9.90593 23.9935 9.71083C23.9964 9.51574 23.9601 9.32205 23.8867 9.14125C23.8134 8.96044 23.7045 8.79619 23.5665 8.65822C23.4285 8.52026 23.2643 8.41137 23.0835 8.33802C22.9027 8.26467 22.709 8.22834 22.5139 8.23118C22.3188 8.23403 22.1263 8.27599 21.9477 8.35458C21.7691 8.43317 21.6081 8.54679 21.4742 8.68873C21.2138 8.96476 21.0712 9.33141 21.0768 9.71083C21.0823 10.0903 21.2355 10.4526 21.5038 10.7209C21.7721 10.9892 22.1345 11.1424 22.5139 11.148C22.8933 11.1535 23.26 11.0109 23.536 10.7505Z" fill="white"/>
</svg>
