<svg width="24" height="24" viewBox="0 0 24 24" fill="none" xmlns="http://www.w3.org/2000/svg">
<path fill-rule="evenodd" clip-rule="evenodd" d="M12 21.334C6.73234 16.6638 4.5 12.9323 4.5 10C4.5 5.61674 7.88732 2.5 12 2.5C16.1127 2.5 19.5 5.61674 19.5 10C19.5 12.9323 17.2677 16.6638 12 21.334ZM12 23.3276L12.6577 22.7533C18.1887 17.9237 21 13.7068 21 10C21 4.75066 16.9029 1 12 1C7.09705 1 3 4.75066 3 10C3 13.7068 5.81131 17.9237 11.3423 22.7533L12 23.3276ZM12 12.5C13.3807 12.5 14.5 11.3807 14.5 10C14.5 8.61929 13.3807 7.5 12 7.5C10.6193 7.5 9.5 8.61929 9.5 10C9.5 11.3807 10.6193 12.5 12 12.5ZM12 14C14.2091 14 16 12.2091 16 10C16 7.79086 14.2091 6 12 6C9.79086 6 8 7.79086 8 10C8 12.2091 9.79086 14 12 14Z" fill="white"/>
</svg>
