<svg width="32" height="32" viewBox="0 0 32 32" fill="none" xmlns="http://www.w3.org/2000/svg">
<path fill-rule="evenodd" clip-rule="evenodd" d="M13.7427 23.4854C8.36195 23.4854 4 19.1234 4 13.7427C4 8.36195 8.36195 4 13.7427 4C19.1234 4 23.4854 8.36195 23.4854 13.7427C23.4854 15.9941 22.7217 18.0672 21.4392 19.7169L28 26.2777L26.2777 28L19.7169 21.4392C18.0672 22.7217 15.9941 23.4854 13.7427 23.4854ZM21.0497 13.7427C21.0497 17.7782 17.7782 21.0497 13.7427 21.0497C9.70713 21.0497 6.43567 17.7782 6.43567 13.7427C6.43567 9.70713 9.70713 6.43567 13.7427 6.43567C17.7782 6.43567 21.0497 9.70713 21.0497 13.7427Z" fill="white"/>
</svg>
