<svg width="32" height="32" viewBox="0 0 32 32" fill="none" xmlns="http://www.w3.org/2000/svg">
<path fill-rule="evenodd" clip-rule="evenodd" d="M26.7968 4L27.9963 25.5901C28.0702 26.9211 27.0511 28.0601 25.7201 28.134C25.6533 28.1371 25.6532 28.1371 25.5864 28.1378H25.5864H25.5862H6.41384C5.08075 28.1378 4.00006 27.0571 4.00006 25.724C4.00037 25.6905 4.00053 25.6737 4.00099 25.657C4.00145 25.6403 4.00223 25.6235 4.00378 25.5901L4.00378 25.5901L5.20323 4H26.7968ZM7.48663 6.41378L6.41384 25.724H25.5862L24.5134 6.41378H7.48663ZM12.3794 8.82755H9.96563V11.8448C9.96563 14.7421 12.7695 17.2758 16.0001 17.2758C19.2306 17.2758 22.0345 14.7421 22.0345 11.8448V8.82755H19.6207V11.8448C19.6207 13.3514 17.949 14.862 16.0001 14.862C14.0511 14.862 12.3794 13.3514 12.3794 11.8448V8.82755Z" fill="white"/>
</svg>
