<svg width="32" height="32" viewBox="0 0 32 32" fill="none" xmlns="http://www.w3.org/2000/svg">
<path d="M26.6562 10.0082C25.2695 10.0082 23.9873 9.5529 22.9615 8.7878C21.7838 7.91003 20.9337 6.61921 20.6345 5.13593C20.5585 4.7698 20.5205 4.3896 20.5158 4H16.5504V14.7068L16.5457 20.5695C16.5457 22.1373 15.5104 23.4657 14.081 23.9351C13.663 24.0712 13.2166 24.1369 12.7512 24.1087C12.1529 24.0759 11.5972 23.8975 11.1081 23.6112C10.0728 23.001 9.37474 21.8932 9.35574 20.6212C9.32725 18.6403 10.9466 17.0209 12.9507 17.0209C13.3449 17.0209 13.7248 17.0866 14.081 17.1993V14.275V13.2282C13.7058 13.1719 13.3259 13.1438 12.9365 13.1438C10.7424 13.1438 8.69089 14.045 7.22346 15.6691C6.11696 16.8942 5.4521 18.462 5.34763 20.1048C5.21466 22.2593 6.01248 24.3106 7.56064 25.822C7.78859 26.0426 8.02604 26.2492 8.27773 26.4416C9.60269 27.4508 11.2268 28 12.9365 28C13.3211 28 13.7058 27.9718 14.081 27.9155C15.6766 27.6808 17.1488 26.9579 18.3123 25.822C19.7417 24.4279 20.53 22.5738 20.5395 20.6024L20.5205 11.8435C21.1996 12.3646 21.9452 12.7917 22.7478 13.125C23.992 13.646 25.3122 13.9042 26.6657 13.9042V11.0597V10.0035C26.6704 10.0082 26.6562 10.0082 26.6562 10.0082Z" fill="white"/>
</svg>
