<svg width="32" height="32" viewBox="0 0 32 32" fill="none" xmlns="http://www.w3.org/2000/svg">
<path d="M28 8.88402C27.1174 9.24852 26.157 9.51085 25.1676 9.61302C26.1948 9.02882 26.9639 8.10588 27.3308 7.01736C26.367 7.56628 25.3111 7.9512 24.2101 8.15503C23.7499 7.68402 23.1933 7.30879 22.575 7.05272C21.9567 6.79666 21.2899 6.66524 20.6163 6.66667C17.8906 6.66667 15.6986 8.78185 15.6986 11.3775C15.6986 11.742 15.7447 12.1065 15.8197 12.4572C11.7385 12.2529 8.09855 10.3862 5.67864 7.52821C5.23771 8.24923 5.00665 9.07021 5.00949 9.90572C5.00949 11.5404 5.87766 12.9819 7.20154 13.8296C6.42136 13.8002 5.65944 13.5949 4.97777 13.2304V13.2884C4.97777 15.5775 6.66795 17.4746 8.92056 17.9108C8.49761 18.016 8.06251 18.0698 7.62553 18.071C7.30537 18.071 7.00252 18.0406 6.69679 17.9992C7.31979 19.8659 9.134 21.2217 11.2943 21.2659C9.60413 22.5333 7.48708 23.2789 5.18832 23.2789C4.77587 23.2789 4.39514 23.2651 4 23.2209C6.18051 24.5601 8.7677 25.3333 11.5539 25.3333C20.599 25.3333 25.5484 18.1594 25.5484 11.9325C25.5484 11.7282 25.5484 11.5239 25.534 11.3195C26.4915 10.6485 27.3308 9.81736 28 8.88402Z" fill="white"/>
</svg>
