<svg width="32" height="32" viewBox="0 0 32 32" fill="none" xmlns="http://www.w3.org/2000/svg">
<path fill-rule="evenodd" clip-rule="evenodd" d="M16.48 16.0001C20.1913 16.0001 23.2 13.0153 23.2 9.33341C23.2 5.65151 20.1913 2.66675 16.48 2.66675C12.7686 2.66675 9.75997 5.65151 9.75997 9.33341C9.75997 13.0153 12.7686 16.0001 16.48 16.0001ZM16.48 14.0953C19.1309 14.0953 21.28 11.9633 21.28 9.33341C21.28 6.70348 19.1309 4.57151 16.48 4.57151C13.829 4.57151 11.68 6.70348 11.68 9.33341C11.68 11.9633 13.829 14.0953 16.48 14.0953Z" fill="white"/>
<path d="M25.3333 29.3334H28C28 29.3334 26.56 17.9048 16 17.9048C5.44 17.9048 4 29.3334 4 29.3334L6.66667 29.3334C6.66667 29.3334 7.63254 20.0001 16 20.0001C24.3675 20.0001 25.3333 29.3334 25.3333 29.3334Z" fill="white"/>
</svg>
