<svg width="32" height="32" viewBox="0 0 32 32" fill="none" xmlns="http://www.w3.org/2000/svg">
<path fill-rule="evenodd" clip-rule="evenodd" d="M11.0413 6.33325C7.61453 6.33325 5 9.16004 5 13.1004C5 16.0139 6.62115 18.9663 9.95836 21.9678C11.7115 23.5446 13.949 25.1008 15.5147 25.9116L16 26.1629L16.4853 25.9116C18.051 25.1008 20.2885 23.5446 22.0416 21.9678C25.3788 18.9663 27 16.0139 27 13.1004C27 9.20924 24.3593 6.34845 20.965 6.33327C19.4926 6.33342 18.6356 6.50472 17.6425 6.99078C17.2738 7.17127 16.9288 7.3881 16.6086 7.64084L15.9947 8.1254L15.3765 7.64635C15.0681 7.40737 14.7358 7.19968 14.3805 7.02393C13.3592 6.51883 12.4483 6.33325 11.0413 6.33325ZM3 13.1004C3 8.26414 6.31224 4.33325 11.0413 4.33325C12.6796 4.33325 13.9091 4.55955 15.2671 5.23123C15.5136 5.35313 15.7527 5.48707 15.984 5.63294C16.2347 5.47216 16.4946 5.32593 16.7633 5.19443C18.1037 4.5383 19.2823 4.33325 20.9672 4.33327L20.9713 4.33327C25.6591 4.35269 29 8.30861 29 13.1004C29 16.8149 26.9255 20.2652 23.3791 23.4548C21.519 25.1278 19.1432 26.7875 17.405 27.6876L16.4598 28.177L16 28.4151L15.5402 28.177L14.595 27.6876C12.8568 26.7875 10.481 25.1278 8.62093 23.4548C5.07448 20.2652 3 16.8149 3 13.1004Z" fill="white"/>
</svg>
