<svg width="32" height="32" viewBox="0 0 32 32" fill="none" xmlns="http://www.w3.org/2000/svg">
<path d="M27.4975 10.5109C27.3616 10.0263 27.0969 9.58762 26.7316 9.24142C26.3559 8.88458 25.8955 8.62932 25.3937 8.49974C23.516 8.00496 15.993 8.00496 15.993 8.00496C12.8568 7.96928 9.72128 8.12618 6.60427 8.47475C6.10252 8.61391 5.64296 8.87487 5.26645 9.23442C4.8965 9.59027 4.62853 10.0291 4.48855 10.5099C4.15229 12.3208 3.98891 14.1596 4.00062 16.0015C3.98862 17.8417 4.1516 19.6799 4.48855 21.4931C4.62553 21.9719 4.8925 22.4087 5.26345 22.7616C5.6344 23.1144 6.09634 23.3693 6.60427 23.5042C8.50701 23.998 15.993 23.998 15.993 23.998C19.1332 24.0338 22.2727 23.8769 25.3937 23.5282C25.8955 23.3987 26.3559 23.1434 26.7316 22.7866C27.1015 22.4337 27.3645 21.9949 27.4965 21.5171C27.8415 19.7068 28.0093 17.8673 27.9974 16.0245C28.0233 14.1739 27.8558 12.3257 27.4975 10.5099V10.5109ZM13.6013 19.424V12.58L19.8605 16.0025L13.6013 19.424Z" fill="white"/>
</svg>
